<svg id="&#x421;&#x43B;&#x43E;&#x439;_1" enable-background="new 0 0 12 12" viewBox="0 0 12 12" xmlns="http://www.w3.org/2000/svg"><g fill="rgb(0,0,0)"><path d="m8.3720703 7.2319336c-.1425781-.140625-.390625-.140625-.53125 0l-.7910156.7915039c-.2626953.2651367-.6972656.2670898-.9619141 0l-2.1103515-2.1108398c-.265625-.2651367-.265625-.6972656 0-.9624023l.7910156-.7915039c.1455078-.1464844.1455078-.3837891 0-.5302734l-2.3935547-2.3935548c-.1425781-.140625-.390625-.140625-.53125 0l-.5273438.527832c-1.5859375 1.5864258-1.5859375 4.1674805 0 5.7543945l3.1660156 3.1660156c.7685548.7685548 1.7910157 1.1918946 2.8779298 1.1918946s2.1083984-.4233398 2.8779297-1.1918945l.5273438-.527832c.1464844-.1464844.1455078-.3837891 0-.5302734zm1.3359375 2.9208984c-1.2578125 1.2543945-3.4443359 1.2524414-4.6943359 0l-3.1660156-3.1660156c-1.2939453-1.2944336-1.2939453-3.3999023 0-4.6938477l.2617187-.2626953 1.8632813 1.8632813-.5263672.5263672c-.5576172.5576172-.5576172 1.465332 0 2.0229492l2.1103516 2.1108398c.5585938.5585938 1.4658203.5566406 2.0244141 0l.5253906-.5263672 1.8632813 1.862793z"/><path d="m6.5.125c-.2070313 0-.375.1679688-.375.375s.1679688.375.375.375c2.5498047 0 4.625 2.074707 4.625 4.625 0 .2070313.1679688.375.375.375s.375-.1679688.375-.375c0-2.9638672-2.4111328-5.375-5.375-5.375z"/><path d="m9.125 5.5c0 .2070313.1679688.375.375.375s.375-.1679687.375-.375c0-1.8608398-1.5136719-3.375-3.375-3.375-.2070313 0-.375.1679688-.375.375s.1679688.375.375.375c1.4472656 0 2.625 1.1777344 2.625 2.625z"/></g></svg>