<svg width="454" height="220" viewBox="0 0 454 220" fill="none" xmlns="http://www.w3.org/2000/svg">
<path d="M280.589 5.03862L245.789 39.8386L203.789 81.8386L169.239 116.389L138.489 147.139L96.5893 189.039L95.7893 189.839H120.539C110.289 179.539 99.9893 169.289 89.7393 158.989L40.9893 110.239L29.7393 98.9886C23.2393 92.4886 11.3893 92.0386 4.98926 98.9886C-1.41074 105.989 -1.91074 116.839 4.98926 123.739C15.2393 134.039 25.5393 144.289 35.7893 154.589L84.5393 203.339L95.7893 214.589C102.489 221.289 113.839 221.289 120.539 214.589L156.939 178.189L191.989 143.139L227.389 107.739L264.239 70.8886L304.689 30.4386L305.439 29.6886C311.939 23.1886 312.389 11.3386 305.439 4.93863C298.339 -1.41137 287.489 -1.91138 280.589 5.03862Z" fill="#000000"/>
<path d="M167.14 143.19L191.24 167.29L229.69 205.74L238.59 214.64C245.29 221.34 256.64 221.34 263.34 214.64L281.79 196.19L325.89 152.09L379.39 98.59L425.49 52.49C432.94 45.04 440.59 37.69 447.89 30.09L448.19 29.79C454.69 23.29 455.14 11.44 448.19 5.04004C441.19 -1.35996 430.34 -1.85996 423.44 5.04004L404.99 23.49L360.89 67.59L307.39 121.09L261.29 167.19C253.84 174.64 246.14 181.99 238.89 189.59L238.59 189.89H263.34L239.24 165.79L200.79 127.34L191.89 118.44C185.39 111.94 173.54 111.49 167.14 118.44C160.69 125.44 160.19 136.29 167.14 143.19Z" fill="#000000"/>
</svg>
