<svg id="Layer_1" enable-background="new 0 0 1024 1024" viewBox="0 0 1024 1024" xmlns="http://www.w3.org/2000/svg"><g id="XMLID_5042_"><g id="XMLID_5057_"><g id="XMLID_18_"><path id="XMLID_22_" d="m512 722.4c-8.4 0-16.7-.6-25-1.7 2.7.4 5.3.7 8 1.1-16.6-2.3-32.7-6.7-48.2-13.1l7.2 3c-11-4.7-21.6-10.3-31.5-17-2.6-1.7-5.1-3.5-7.6-5.3-5.4-4 3.2 2.6 1.4 1.1-1.2-1-2.4-1.9-3.6-2.9-4.6-3.8-9-7.8-13.1-12-4.2-4.2-8.2-8.6-12-13.1-.8-1-1.7-2-2.5-3.1-3.2-3.9 5.1 6.8.7.8-1.7-2.3-3.4-4.6-5-7-6.8-10.1-12.6-20.8-17.4-32l3 7.2c-6.5-15.4-10.9-31.6-13.1-48.2.4 2.7.7 5.3 1.1 8-2.4-18.4-1.7-37.2-1.7-55.7 0-21.6 0-43.2 0-64.8 0-10.6.3-21.2 1.7-31.7-.4 2.7-.7 5.3-1.1 8 2.3-16.6 6.7-32.7 13.1-48.2-1 2.4-2 4.8-3 7.2 4.7-11 10.3-21.6 17-31.5 1.7-2.6 3.5-5.1 5.3-7.6 4-5.4-2.6 3.2-1.1 1.4 1-1.2 1.9-2.4 2.9-3.6 3.8-4.6 7.8-9 12-13.1s8.6-8.2 13.1-12c1-.8 2-1.7 3.1-2.5 3.9-3.2-6.8 5.1-.8.7 2.3-1.7 4.6-3.4 7-5 10.1-6.8 20.8-12.6 32-17.4-2.4 1-4.8 2-7.2 3 15.4-6.5 31.6-10.9 48.2-13.1-2.7.4-5.3.7-8 1.1 16.6-2.2 33.4-2.2 50.1 0-2.7-.4-5.3-.7-8-1.1 16.6 2.3 32.7 6.7 48.2 13.1-2.4-1-4.8-2-7.2-3 11 4.7 21.6 10.3 31.5 17 2.6 1.7 5.1 3.5 7.6 5.3 5.4 4-3.2-2.6-1.4-1.1 1.2 1 2.4 1.9 3.6 2.9 4.6 3.8 9 7.8 13.1 12 4.2 4.2 8.2 8.6 12 13.1.8 1 1.7 2 2.5 3.1 3.2 3.9-5.1-6.8-.7-.8 1.7 2.3 3.4 4.6 5 7 6.8 10.1 12.6 20.8 17.4 32-1-2.4-2-4.8-3-7.2 6.5 15.4 10.9 31.6 13.1 48.2-.4-2.7-.7-5.3-1.1-8 2.4 18.4 1.7 37.2 1.7 55.7v64.8c0 10.6-.3 21.2-1.7 31.7.4-2.7.7-5.3 1.1-8-2.3 16.6-6.7 32.7-13.1 48.2 1-2.4 2-4.8 3-7.2-4.7 11-10.3 21.6-17 31.5-1.7 2.6-3.5 5.1-5.3 7.6-4 5.4 2.6-3.2 1.1-1.4-1 1.2-1.9 2.4-2.9 3.6-3.8 4.6-7.8 9-12 13.1s-8.6 8.2-13.1 12c-1 .8-2 1.7-3.1 2.5-3.9 3.2 6.8-5.1.8-.7-2.3 1.7-4.6 3.4-7 5-10.1 6.8-20.8 12.6-32 17.4l7.2-3c-15.4 6.5-31.6 10.9-48.2 13.1 2.7-.4 5.3-.7 8-1.1-8.4 1.1-16.7 1.7-25.1 1.7-15.7.1-30.7 13.8-30 30s13.2 30.1 30 30c60-.2 119-25.5 160-69.6 38.1-41.1 59.3-95.1 59.4-151.2 0-31.3 0-62.7 0-94 0-20.6-1.8-41.1-6.9-61.1-7.3-28.8-20.9-55.7-39.1-79.1-17.9-23.2-40.3-43-65.9-57.4-27.5-15.5-57.3-24.2-88.6-27.3-60-6-120.3 15.7-165.1 55.3-45 39.7-71.4 98.3-73 158.1-.8 30.2-.1 60.5-.1 90.8 0 17.3.5 34.2 3 51.4 4.1 28.3 14.8 56.2 30 80.4 31.4 49.9 83 87.5 141.1 99.2 14.8 3 30.1 4.8 45.2 4.8 15.7 0 30.7-13.8 30-30-.7-16.5-13.2-30.3-30-30.3z"/></g></g><g id="XMLID_5056_"><g id="XMLID_12_"><path id="XMLID_16_" d="m687.2 852.7c-9.6 5-19.4 9.6-29.4 13.8l7.2-3c-33.7 14.2-69.2 23.9-105.4 28.8 2.7-.4 5.3-.7 8-1.1-36.9 4.9-74.2 4.9-111.1 0 2.7.4 5.3.7 8 1.1-36.2-4.9-71.5-14.6-105.2-28.7l7.2 3c-19.1-8.1-37.6-17.6-55.2-28.5-8.8-5.4-17.4-11.1-25.7-17.2-2-1.4-3.9-2.8-5.8-4.3-1.1-.8-2.1-1.6-3.1-2.4-4.3-3.2 6.1 4.8 1.9 1.5-4.1-3.3-8.2-6.6-12.2-10-15.5-13.1-30-27.4-43.4-42.7-3.3-3.8-6.6-7.6-9.7-11.5-1.4-1.7-2.8-3.4-4.1-5.1-1.4-1.7-4.5-6 1.5 1.9-1.1-1.4-2.1-2.8-3.2-4.2-6-8.1-11.8-16.3-17.2-24.8-12.6-19.7-23.5-40.4-32.7-61.9 1 2.4 2 4.8 3 7.2-14.2-33.6-23.8-69-28.7-105.2.4 2.7.7 5.3 1.1 8-4.9-36.9-4.9-74.3 0-111.2-.4 2.7-.7 5.3-1.1 8 4.9-36.2 14.6-71.5 28.7-105.2-1 2.4-2 4.8-3 7.2 8.1-19.1 17.6-37.6 28.5-55.2 5.4-8.8 11.1-17.4 17.2-25.7 1.4-2 2.8-3.9 4.3-5.8.8-1.1 1.6-2.1 2.4-3.1 3.2-4.3-4.8 6.1-1.5 1.9 3.3-4.1 6.6-8.2 10-12.2 13.1-15.5 27.4-30 42.7-43.4 3.8-3.3 7.6-6.6 11.5-9.7 1.7-1.4 3.4-2.8 5.1-4.1 1.7-1.4 6-4.5-1.9 1.5 1.4-1.1 2.8-2.1 4.2-3.2 8.1-6 16.3-11.8 24.8-17.2 19.7-12.6 40.4-23.5 61.9-32.7-2.4 1-4.8 2-7.2 3 33.6-14.2 69-23.8 105.2-28.7-2.7.4-5.3.7-8 1.1 36.9-4.9 74.3-4.9 111.2 0-2.7-.4-5.3-.7-8-1.1 36.2 4.9 71.5 14.6 105.2 28.7-2.4-1-4.8-2-7.2-3 19.1 8.1 37.6 17.6 55.2 28.5 8.8 5.4 17.4 11.1 25.7 17.2 2 1.4 3.9 2.8 5.8 4.3 1.1.8 2.1 1.6 3.1 2.4 4.3 3.2-6.1-4.8-1.9-1.5 4.1 3.3 8.2 6.6 12.2 10 15.5 13.1 30 27.4 43.4 42.7 3.3 3.8 6.6 7.6 9.7 11.5 1.4 1.7 2.8 3.4 4.1 5.1 1.4 1.7 4.5 6-1.5-1.9 1.1 1.4 2.1 2.8 3.2 4.2 6 8.1 11.8 16.3 17.2 24.8 12.6 19.7 23.5 40.4 32.7 61.9-1-2.4-2-4.8-3-7.2 14.2 33.6 23.8 69 28.7 105.2-.4-2.7-.7-5.3-1.1-8 4.7 35.1 3.7 70.4 3.7 105.8 0 7.6 0 15-1 22.6.4-2.7.7-5.3 1.1-8-1.4 9.8-4 19.2-7.8 28.4 1-2.4 2-4.8 3-7.2-2.8 6.4-6.1 12.6-9.9 18.5-1 1.4-2 2.9-3 4.3-2.9 4.1 5.3-6.6.7-.9-2.2 2.7-4.6 5.2-7 7.7s-5 4.8-7.7 7c-5.6 4.7 5-3.5.9-.7-1.4 1-2.8 2-4.3 3-5.8 3.9-12 7.2-18.5 9.9l7.2-3c-9.1 3.8-18.6 6.4-28.4 7.8 2.7-.4 5.3-.7 8-1.1-10.1 1.3-20.2 1.3-30.4 0 2.7.4 5.3.7 8 1.1-9.8-1.4-19.2-4-28.4-7.8l7.2 3c-6.4-2.8-12.6-6.1-18.5-9.9-1.4-1-2.9-2-4.3-3-4.1-2.9 6.6 5.3.9.7-2.7-2.2-5.2-4.6-7.7-7s-4.8-5-7-7.7c-4.7-5.6 3.5 5 .7.9-1-1.4-2-2.8-3-4.3-3.9-5.8-7.2-12-9.9-18.5 1 2.4 2 4.8 3 7.2-3.8-9.1-6.4-18.6-7.8-28.4.4 2.7.7 5.3 1.1 8-.7-5-1-10.1-1-15.2-.1-15.7-13.7-30.7-30-30-16.2.7-30.1 13.2-30 30 .3 51.4 29 101 74.8 125 45.3 23.7 102.6 22.4 145.2-6.7 40-27.3 63.6-71.5 63.6-120 0-26.5.8-53.2-.7-79.7-2.6-45.2-11.6-90.2-27.9-132.5-16.7-43.5-39.5-83-68.2-119.6-54.1-69.3-130.2-120.7-213.8-147.1-87.3-27.6-184.3-26.9-271.2 2.1-41.8 13.9-81.8 33.8-117.5 59.6-37.5 27-69.8 58.8-97.9 95.5-54.4 71.2-84.9 159.5-88.5 248.9-3.6 90 21.1 181.4 70.3 256.9 23.9 36.7 53 70.3 86.7 98.4 35.8 29.9 75.1 53.6 118.2 71.6 92.3 38.5 198.7 43.3 294.3 14.6 27.1-8.1 53.5-19 78.7-32 14-7.2 19.2-27.9 10.8-41-9.2-14.4-26.2-18.7-41.1-11z"/></g></g></g></svg>