<svg id="Layer_1" enable-background="new 0 0 48 48" height="512" viewBox="0 0 48 48" width="512" xmlns="http://www.w3.org/2000/svg"><path d="m24 23.007c-1.175 0-2.278-.458-3.109-1.288l-9.305-9.305 2.828-2.828 9.306 9.305c.193.192.368.192.56 0l9.307-9.305 2.828 2.828-9.306 9.305c-.831.831-1.934 1.288-3.109 1.288z" fill="#f44336"/><path d="m31.411 31.19-.572 4.004c-.13.912.426 1.782 1.308 2.046l8.086 2.426c.822.247 1.706-.101 2.141-.841l3.24-5.524c.825-1.406.283-3.219-1.186-3.925-3.596-1.725-10.702-4.376-20.428-4.376-9.725 0-16.832 2.65-20.428 4.376-1.469.705-2.01 2.519-1.186 3.925l3.24 5.524c.434.74 1.319 1.088 2.141.841l8.086-2.426c.882-.265 1.438-1.135 1.308-2.046l-.573-4.007c-.147-1.031.575-1.988 1.609-2.114 1.799-.219 3.736-.35 5.802-.349 2.064 0 4.003.132 5.804.353 1.034.126 1.756 1.082 1.608 2.113z" fill="#d32f2f"/><path d="m37 9v10l-10-10z" fill="#f44336"/></svg>