<svg id="Layer_1" viewBox="0 0 512 512" xmlns="http://www.w3.org/2000/svg" data-name="Layer 1"><g fill="rgb(0,0,0)"><path d="m411.76 278.79c-10.05 0-18.21 8.16-18.21 18.21v148.22c0 16.74-13.61 30.35-30.35 30.35h-296.42c-16.74 0-30.35-13.61-30.35-30.35v-296.44c0-16.74 13.61-30.35 30.35-30.35h148.21c10.05 0 18.21-8.16 18.21-18.21s-8.16-18.21-18.21-18.21h-148.21c-36.83 0-66.78 29.96-66.78 66.77v296.44c0 36.81 29.95 66.78 66.78 66.78h296.42c36.83 0 66.78-29.96 66.78-66.78v-148.22c0-10.05-8.16-18.21-18.21-18.21z"/><path d="m512 88.03c0-11.35-4.41-22.02-12.45-30.04l-45.53-45.55c-16.58-16.6-43.59-16.55-60.11 0l-55.62 55.63s-.04.03-.06.05-.03.04-.05.06l-180.69 180.71c-7.02 7-11.38 16.3-12.31 26.2v.02l-5.88 64.61c-.81 9 2.37 17.82 8.77 24.22 5.74 5.73 13.42 8.88 21.44 8.88.9 0 1.85-.04 2.77-.12l64.6-5.88c9.86-.89 19.18-5.24 26.23-12.27l180.6-180.62c.06-.06.13-.11.19-.17s.11-.13.17-.19l55.48-55.49c8.04-8.03 12.45-18.7 12.45-30.04zm-274.63 240.74c-1.02 1.02-2.35 1.64-3.79 1.77l-57.34 5.23 5.22-57.35c.14-1.45.74-2.74 1.75-3.76l167.9-167.91 54.15 54.13-167.88 167.9zm236.42-236.45-42.79 42.79-54.15-54.13 42.8-42.8c3.11-3.12 5.55-3.05 8.61 0l45.53 45.55c2.37 2.37 2.37 6.21 0 8.58z"/></g></svg>