<svg width="139" height="134" viewBox="0 0 139 134" fill="none" xmlns="http://www.w3.org/2000/svg">
<path d="M2.433 3.59044C-0.800685 6.82412 0.936415 16.3176 0.936415 19.5C0.936416 22.6824 6 63.5 6 63.5C6 63.5 65 64.5 65 66.5C65 68.5 6 70.5 6 70.5C4.77067 74.1345 -1.94985 128.074 0.936415 130.96C4.11665 134.14 8.87364 134.835 12.722 132.965L12.8289 132.911L132.155 75.6402C133.197 75.1324 134.132 74.4643 134.987 73.6091C139.023 69.5737 139.023 62.9994 134.987 58.964C133.999 57.9752 132.849 57.2536 131.647 56.7458C102.279 44.5044 73.3776 30.3886 44.5676 16.3176C34.4461 11.3741 24.3346 6.43565 14.2186 1.58608C10.3702 -0.284644 5.61324 0.410198 2.433 3.59044Z" fill="#6699FF"/>
</svg>
