<svg width="531" height="534" viewBox="0 0 531 534" fill="none" xmlns="http://www.w3.org/2000/svg">
<ellipse cx="265.5" cy="266" rx="265.5" ry="266" fill="#59267C"/>
<path d="M485.169 258.392L108.635 98.7501C106.913 98.084 105.026 97.8805 103.187 98.1625C101.348 98.4444 99.6292 99.2007 98.2231 100.347C96.8483 101.536 95.8806 103.081 95.4426 104.786C95.0046 106.491 95.1158 108.279 95.7621 109.925L157.477 267.261L95.7621 423.887C95.1158 425.532 95.0046 427.321 95.4426 429.025C95.8806 430.73 96.8483 432.275 98.2231 433.465C100.027 434.896 102.297 435.709 104.66 435.771C105.971 436.024 107.324 436.024 108.635 435.771L485.169 276.129C486.877 275.448 488.333 274.311 489.356 272.86C490.379 271.41 490.925 269.709 490.925 267.97C490.925 266.231 490.379 264.53 489.356 263.08C488.333 261.629 486.877 260.492 485.169 259.811V258.392ZM121.319 124.47L437.464 258.392H174.136L121.319 124.47ZM174.136 276.129H437.464L121.319 410.051L174.136 276.129Z" fill="white"/>
</svg>
