<svg width="990" height="270" viewBox="0 0 990 270" fill="none" xmlns="http://www.w3.org/2000/svg">
<path d="M90.0017 45C88.1369 45 86.2725 46.0431 85.3696 48.1298L62.827 100.236C62.0869 101.947 60.5424 103.123 58.7616 103.333L4.52745 109.708C2.4816 109.949 1.01269 111.327 0.367188 113.04L104.696 155.389L90.0017 45Z" fill="#FFE96D"/>
<path d="M34.375 223.844C35.8928 225.092 38.0634 225.461 40.0288 224.291L87.4796 196.027C89.0378 195.099 90.9465 195.099 92.5044 196.027L139.955 224.291C141.92 225.461 144.091 225.092 145.609 223.844L116.559 158.606L89.9916 139.984L67.2665 158.732L34.375 223.844Z" fill="#FFE96D"/>
<path d="M179.635 113.04C178.989 111.327 177.52 109.949 175.474 109.709L121.24 103.333C119.459 103.124 117.915 101.947 117.175 100.236L94.6321 48.1298C93.7292 46.0431 91.8648 45 90 45V139.984L179.635 113.04Z" fill="#FFBF26"/>
<path d="M0.365134 113.039C-0.359475 114.963 -0.0448097 117.31 1.66247 118.944L41.9645 157.523C43.2879 158.79 43.8779 160.693 43.5175 162.533L32.5415 218.58C32.1171 220.747 32.9655 222.678 34.3824 223.842L89.9993 139.983L0.365134 113.039Z" fill="#FFBF26"/>
<path d="M92.5127 196.027L139.964 224.291C141.929 225.461 144.1 225.092 145.617 223.844L116.568 158.606L90 139.984V195.331C90.867 195.331 91.7336 195.563 92.5127 196.027Z" fill="#FFBF26"/>
<path d="M90 139.983L145.617 223.843C147.034 222.678 147.882 220.748 147.458 218.581L136.482 162.534C136.122 160.694 136.712 158.791 138.035 157.524L178.337 118.944C180.044 117.31 180.359 114.963 179.635 113.039L90 139.983Z" fill="#FF9100"/>
<path d="M480.002 45C478.137 45 476.273 46.0431 475.37 48.1298L452.827 100.236C452.087 101.947 450.542 103.123 448.762 103.333L394.527 109.708C392.482 109.949 391.013 111.327 390.367 113.04L494.696 155.389L480.002 45Z" fill="#FFE96D"/>
<path d="M424.375 223.844C425.893 225.092 428.063 225.461 430.029 224.291L477.48 196.027C479.038 195.099 480.947 195.099 482.504 196.027L529.955 224.291C531.92 225.461 534.091 225.092 535.609 223.844L506.559 158.606L479.992 139.984L457.266 158.732L424.375 223.844Z" fill="#FFE96D"/>
<path d="M569.635 113.04C568.989 111.327 567.52 109.949 565.474 109.709L511.24 103.333C509.459 103.124 507.915 101.947 507.175 100.236L484.632 48.1298C483.729 46.0431 481.865 45 480 45V139.984L569.635 113.04Z" fill="#FFBF26"/>
<path d="M390.365 113.039C389.641 114.963 389.955 117.31 391.662 118.944L431.965 157.523C433.288 158.79 433.878 160.693 433.517 162.533L422.541 218.58C422.117 220.747 422.965 222.678 424.382 223.842L479.999 139.983L390.365 113.039Z" fill="#FFBF26"/>
<path d="M482.513 196.027L529.964 224.291C531.929 225.461 534.1 225.092 535.617 223.844L506.568 158.606L480 139.984V195.331C480.867 195.331 481.734 195.563 482.513 196.027Z" fill="#FFBF26"/>
<path d="M480 139.983L535.617 223.843C537.034 222.678 537.882 220.748 537.458 218.581L526.482 162.534C526.122 160.694 526.712 158.791 528.035 157.524L568.337 118.944C570.044 117.31 570.359 114.963 569.635 113.039L480 139.983Z" fill="#FF9100"/>
<path d="M285.002 45C283.137 45 281.273 46.0431 280.37 48.1298L257.827 100.236C257.087 101.947 255.542 103.123 253.762 103.333L199.527 109.708C197.482 109.949 196.013 111.327 195.367 113.04L299.696 155.389L285.002 45Z" fill="#FFE96D"/>
<path d="M229.375 223.844C230.893 225.092 233.063 225.461 235.029 224.291L282.48 196.027C284.038 195.099 285.947 195.099 287.504 196.027L334.955 224.291C336.92 225.461 339.091 225.092 340.609 223.844L311.559 158.606L284.992 139.984L262.266 158.732L229.375 223.844Z" fill="#FFE96D"/>
<path d="M374.635 113.04C373.989 111.327 372.52 109.949 370.474 109.709L316.24 103.333C314.459 103.124 312.915 101.947 312.175 100.236L289.632 48.1298C288.729 46.0431 286.865 45 285 45V139.984L374.635 113.04Z" fill="#FFBF26"/>
<path d="M195.365 113.039C194.641 114.963 194.955 117.31 196.662 118.944L236.965 157.523C238.288 158.79 238.878 160.693 238.517 162.533L227.541 218.58C227.117 220.747 227.965 222.678 229.382 223.842L284.999 139.983L195.365 113.039Z" fill="#FFBF26"/>
<path d="M287.513 196.027L334.964 224.291C336.929 225.461 339.1 225.092 340.617 223.844L311.568 158.606L285 139.984V195.331C285.867 195.331 286.734 195.563 287.513 196.027Z" fill="#FFBF26"/>
<path d="M285 139.983L340.617 223.843C342.034 222.678 342.882 220.748 342.458 218.581L331.482 162.534C331.122 160.694 331.712 158.791 333.035 157.524L373.337 118.944C375.044 117.31 375.359 114.963 374.635 113.039L285 139.983Z" fill="#FF9100"/>
<path d="M675.002 45C673.137 45 671.273 46.0431 670.37 48.1298L647.827 100.236C647.087 101.947 645.543 103.123 643.762 103.333L589.527 109.708C587.482 109.949 586.013 111.327 585.367 113.04L689.697 155.39L675.002 45Z" fill="#C2C2C2"/>
<path d="M619.379 223.845C620.897 225.092 623.067 225.462 625.033 224.291L672.484 196.027C674.042 195.099 675.951 195.099 677.509 196.027L724.96 224.291C726.925 225.462 729.096 225.093 730.613 223.845L701.563 158.606L674.996 139.984L652.271 158.732L619.379 223.845Z" fill="#C2C2C2"/>
<path d="M764.635 113.041C763.99 111.327 762.521 109.949 760.475 109.709L706.24 103.333C704.459 103.124 702.915 101.948 702.175 100.237L679.632 48.1298C678.729 46.0431 676.865 45 675 45V139.984L764.635 113.041Z" fill="#C2C2C2"/>
<path d="M585.365 113.039C584.641 114.963 584.955 117.31 586.662 118.944L626.965 157.523C628.288 158.79 628.878 160.693 628.518 162.534L617.542 218.58C617.117 220.747 617.966 222.678 619.383 223.843L675 139.983L585.365 113.039Z" fill="#C2C2C2"/>
<path d="M677.513 196.027L724.964 224.291C726.929 225.462 729.1 225.093 730.618 223.845L701.568 158.606L675 139.984V195.331C675.867 195.331 676.734 195.563 677.513 196.027Z" fill="#C2C2C2"/>
<path d="M675 139.983L730.617 223.843C732.034 222.679 732.882 220.748 732.458 218.581L721.482 162.534C721.122 160.694 721.712 158.791 723.035 157.524L763.338 118.944C765.045 117.31 765.36 114.963 764.635 113.039L675 139.983Z" fill="#C2C2C2"/>
<path d="M870.002 45C868.137 45 866.273 46.0431 865.37 48.1298L842.827 100.236C842.087 101.947 840.543 103.123 838.762 103.333L784.527 109.708C782.482 109.949 781.013 111.327 780.367 113.04L884.697 155.39L870.002 45Z" fill="#C2C2C2"/>
<path d="M814.379 223.845C815.897 225.092 818.067 225.462 820.033 224.291L867.484 196.027C869.042 195.099 870.951 195.099 872.509 196.027L919.96 224.291C921.925 225.462 924.096 225.093 925.613 223.845L896.563 158.606L869.996 139.984L847.271 158.732L814.379 223.845Z" fill="#C2C2C2"/>
<path d="M959.635 113.041C958.99 111.327 957.521 109.949 955.475 109.709L901.24 103.333C899.459 103.124 897.915 101.948 897.175 100.237L874.632 48.1298C873.729 46.0431 871.865 45 870 45V139.984L959.635 113.041Z" fill="#C2C2C2"/>
<path d="M780.365 113.039C779.641 114.963 779.955 117.31 781.662 118.944L821.965 157.523C823.288 158.79 823.878 160.693 823.518 162.534L812.542 218.58C812.117 220.747 812.966 222.678 814.383 223.843L870 139.983L780.365 113.039Z" fill="#C2C2C2"/>
<path d="M872.513 196.027L919.964 224.291C921.929 225.462 924.1 225.093 925.618 223.845L896.568 158.606L870 139.984V195.331C870.867 195.331 871.734 195.563 872.513 196.027Z" fill="#C2C2C2"/>
<path d="M870 139.983L925.617 223.843C927.034 222.679 927.882 220.748 927.458 218.581L916.482 162.534C916.122 160.694 916.712 158.791 918.035 157.524L958.338 118.944C960.045 117.31 960.36 114.963 959.635 113.039L870 139.983Z" fill="#C2C2C2"/>
</svg>
