<svg id="Слой_1" enable-background="new 0 0 512 512" height="32" viewBox="0 0 512 512" width="32" xmlns="http://www.w3.org/2000/svg"><g fill="#ffffff"><path d="m354.133 332.8c0 30.584 24.882 55.466 55.467 55.466s55.467-24.882 55.467-55.466-24.882-55.466-55.467-55.466-55.467 24.882-55.467 55.466zm93.868 0c0 21.174-17.226 38.4-38.401 38.4s-38.401-17.226-38.401-38.4 17.226-38.4 38.401-38.4 38.401 17.226 38.401 38.4z"></path><path d="m200.534 332.8c0 30.584 24.882 55.466 55.467 55.466 30.584 0 55.466-24.882 55.466-55.466s-24.882-55.466-55.466-55.466c-30.585-.001-55.467 24.882-55.467 55.466zm93.866 0c0 21.174-17.226 38.4-38.4 38.4s-38.401-17.226-38.401-38.4 17.226-38.4 38.401-38.4c21.174 0 38.4 17.226 38.4 38.4z"></path><path d="m102.4 277.333c-30.584 0-55.466 24.882-55.466 55.466s24.882 55.466 55.466 55.466c30.585 0 55.467-24.882 55.467-55.466s-24.882-55.466-55.467-55.466zm0 93.867c-21.173 0-38.4-17.226-38.4-38.4s17.226-38.4 38.4-38.4c21.175 0 38.401 17.226 38.401 38.4-.001 21.174-17.227 38.4-38.401 38.4z"></path><path d="m409.6 401.067c-29.523 0-57.495 12.808-76.828 34.717-18.778-21.274-46.232-34.717-76.772-34.717-29.523 0-57.495 12.808-76.828 34.718-18.778-21.274-46.232-34.718-76.773-34.718-56.464 0-102.4 45.936-102.4 102.4.001 4.713 3.821 8.533 8.534 8.533h187.733 153.601 153.6c4.713 0 8.533-3.82 8.533-8.533 0-56.463-45.936-102.4-102.4-102.4zm-392.111 93.867c4.297-43.061 40.737-76.8 84.91-76.8s80.614 33.74 84.91 76.8zm186.952 0c-1.361-16.421-6.613-31.754-14.83-45.073 16.147-19.962 40.559-31.727 66.39-31.727 44.173 0 80.614 33.74 84.91 76.8zm153.601 0c-1.361-16.421-6.613-31.754-14.83-45.074 16.148-19.961 40.558-31.727 66.389-31.727 44.173 0 80.614 33.74 84.91 76.8z"></path><path d="m12.8 337.066c4.713 0 8.533-3.82 8.533-8.533v-231.131l121.966 121.966c1.601 1.6 3.771 2.499 6.035 2.499h34.134v4.267c0 16.468 13.398 29.867 29.867 29.867h81.065c16.469 0 29.867-13.398 29.867-29.867v-4.267h38.4c2.264 0 4.434-.899 6.035-2.499l121.965-121.966v231.132c0 4.713 3.82 8.533 8.533 8.533s8.533-3.82 8.533-8.533c0 0 0-234.512 0-234.667 0-13.682-11.567-25.6-25.599-25.6h-98.134v-21.334c0-25.879-21.054-46.933-46.933-46.933h-162.134c-25.879 0-46.933 21.054-46.933 46.933v21.333h-98.134c-13.962 0-25.599 11.651-25.599 25.6v234.667c0 4.713 3.82 8.533 8.533 8.533zm294.401-110.933c0 7.058-5.742 12.8-12.8 12.8h-81.066c-7.057 0-12.8-5.742-12.8-12.8v-34.133c0-7.058 5.743-12.8 12.8-12.8h81.065c7.059 0 12.8 5.742 12.8 12.8v34.133zm51.931-21.333h-34.865v-12.8c0-16.469-13.398-29.867-29.867-29.867h-81.066c-16.469 0-29.867 13.398-29.867 29.867v12.8h-30.599l-119.466-119.466h445.196zm-214.065-157.867c0-16.469 13.398-29.867 29.867-29.867h162.134c16.469 0 29.867 13.398 29.867 29.867v21.333h-221.868z"></path></g></svg>