<svg width="426" height="426" viewBox="0 0 426 426" fill="none" xmlns="http://www.w3.org/2000/svg">
<g clip-path="url(#clip0_1821_11256)">
<path d="M319.361 142.24C309.821 127.79 297.431 115.4 282.981 105.86C262.781 92.53 238.601 84.75 212.601 84.75C142.001 84.75 84.7514 141.99 84.7514 212.6C84.7514 238.62 92.5114 262.81 105.861 282.98L41.6914 347.15L78.0714 383.53L142.241 319.36C162.441 332.69 186.601 340.45 212.591 340.45C283.191 340.45 340.441 283.21 340.441 212.6C340.441 186.6 332.681 162.42 319.351 142.25L319.361 142.24ZM212.601 292.29C199.991 292.29 188.071 289.37 177.461 284.14C161.671 276.38 148.861 263.55 141.081 247.76C135.851 237.15 132.931 225.21 132.931 212.6C132.931 168.59 168.591 132.93 212.601 132.93C225.211 132.93 237.161 135.85 247.761 141.08C263.551 148.86 276.381 161.67 284.141 177.46C289.371 188.07 292.291 199.99 292.291 212.6C292.291 256.61 256.611 292.3 212.591 292.3L212.601 292.29Z" fill="#18B36A"/>
<path d="M60.94 222.61C62.25 243 67.58 262.31 76.18 279.73L31.65 324.21C22.11 308.8 14.48 292.07 9.12 274.37C3.2 254.83 0 234.08 0 212.6C0 153.03 24.51 99.18 63.99 60.59C102.3 23.1 154.76 0 212.6 0H283.77L223.11 60.59H212.6C128.64 60.59 60.59 128.64 60.59 212.6C60.59 215.97 60.69 219.29 60.94 222.61ZM364.61 0V212.6C364.61 296.56 296.56 364.61 212.6 364.61C209.18 364.61 205.81 364.49 202.44 364.26C182.05 362.92 162.74 357.57 145.34 348.95L100.81 393.46C116.22 403.03 132.95 410.66 150.65 416.01C170.25 422.01 191.04 425.2 212.6 425.2C272.17 425.2 326.02 400.69 364.61 361.21C402.1 322.9 425.2 270.44 425.2 212.6V0H364.61Z" fill="white"/>
</g>
<defs>
<clipPath id="clip0_1821_11256">
<rect width="425.2" height="425.2" fill="white"/>
</clipPath>
</defs>
</svg>
