<svg xmlns="http://www.w3.org/2000/svg" version="1.1" xmlns:xlink="http://www.w3.org/1999/xlink" width="32" height="32" x="0" y="0" viewBox="0 0 7111 7111" style="enable-background:new 0 0 512 512" xml:space="preserve" fill-rule="evenodd" class=""><g><path d="M3369 4357c-54 0-102-35-117-89-17-65 21-131 86-148l476-128c65-17 131 21 148 85 18 65-21 131-85 148l-477 128c-10 3-21 4-31 4zm-958 2437H121c-67 0-121-54-121-121V438c0-67 54-121 121-121h6869c67 0 121 54 121 121v6235c0 67-54 121-121 121H4700zM242 6552h2048V1407H242zm0-5387h2048V559H242zm4579 242v5145h2048V1407zM2531 6552h2049V1407H2531zM4821 559v606h2048V559zm-2290 606h2049V559H2531zm-619-182H619c-67 0-121-54-121-121s54-121 121-121h1293c67 0 121 54 121 121s-54 121-121 121zm2290 0H2909c-67 0-121-54-121-121s54-121 121-121h1293c67 0 121 54 121 121s-54 121-121 121zm2290 0H5199c-67 0-121-54-121-121s54-121 121-121h1293c67 0 121 54 121 121s-54 121-121 121zM1878 3250H654c-67 0-121-54-121-121V1905c0-67 54-121 121-121h1224c66 0 120 54 120 121v1224c0 67-54 121-120 121zM775 3008h982v-982H775zm1103 2661H654c-67 0-121-54-121-121V4325c0-67 54-121 121-121h1224c66 0 120 54 120 121v1223c0 67-54 121-120 121zM775 5428h982v-983H775zm5682-1523H5233c-66 0-120-54-120-120V2561c0-67 54-121 120-121h1224c67 0 121 54 121 121v1224c0 66-54 120-121 120zm-1103-241h982v-982h-982zm-4174-878c-31 0-62-11-86-35l-125-125c-47-47-47-124 0-171s124-47 171 0l40 40 212-212c47-47 123-47 171 0 47 47 47 124 0 171l-298 297c-23 24-54 35-85 35zm0 2420c-32 0-63-13-86-35l-125-126c-47-47-47-123 0-170 47-48 124-48 171 0l40 40 212-213c47-47 123-47 171 0 47 48 47 124 0 171l-298 298c-23 22-53 35-85 35zm4579-1764c-32 0-62-12-85-35l-125-125c-48-48-48-124 0-171 47-47 123-47 170 0l40 40 212-212c48-47 124-47 171 0s47 123 0 171l-297 297c-23 23-54 35-86 35zM3123 4849c-53 0-102-35-117-89l-316-1182c-18-64 21-131 85-148l1182-317c64-17 131 21 148 86l317 1182c8 31 3 64-13 91-16 28-42 48-73 57l-1182 316c-10 3-21 4-31 4zm-169-1217 254 949 949-254-254-949zm311 339c-53 0-102-36-116-90-18-64 21-130 85-147l477-128c64-17 131 21 148 85 17 65-21 131-86 148l-476 128c-11 3-21 4-32 4z" fill="#ffffff" opacity="1" data-original="#000000" class=""></path></g></svg>